<svg xmlns="http://www.w3.org/2000/svg" width="43" height="39" viewBox="0 0 43 39" fill="none">
<path d="M41.9339 16.7174L33.7859 2.52868C32.9431 0.983379 31.2573 0 29.431 0H27.4643C21.0021 0 17.2091 5.33832 17.2091 10.5362C17.2091 13.9077 18.8948 16.8578 20.5806 19.6675C22.2664 22.4771 23.8117 25.1463 23.8117 28.0964C23.8117 33.2943 20.0187 37.2277 14.9613 37.2277H13.1351C11.8707 37.2277 10.6064 36.5253 9.90399 35.4015L1.75603 21.2128C1.05362 20.0889 1.05362 18.6841 1.75603 17.4198L9.90399 3.23109C10.6064 2.10724 11.8707 1.40482 13.1351 1.40482H18.7544V0H13.1351C11.3088 0 9.62302 0.983379 8.78013 2.52868L0.632169 16.7174C-0.210723 18.2627 -0.210723 20.2294 0.632169 21.7747L8.78013 35.9634C9.62302 37.5087 11.3088 38.4921 13.1351 38.4921H14.8209C20.7211 38.4921 25.0761 33.9967 25.0761 27.9559C25.0761 24.5844 23.3903 21.6342 21.7045 18.8246C20.0187 16.0149 18.6139 13.4863 18.6139 10.3957C18.6139 4.49542 23.2498 1.26434 27.4643 1.26434H29.2905C30.5549 1.26434 31.8192 1.96674 32.5216 3.0906L40.6696 17.2793C41.372 18.4032 41.372 19.808 40.6696 21.0723L32.5216 35.261C31.8192 36.3849 30.5549 37.0873 29.2905 37.0873H23.5308V38.4921H29.2905C31.1168 38.4921 32.8026 37.5087 33.6455 35.9634L41.7934 21.7747C42.7768 20.2294 42.7768 18.2627 41.9339 16.7174Z" fill="White"/>
<path d="M28.3073 29.7828C27.8859 30.3447 27.3239 30.7661 26.6215 30.7661V32.171C27.7454 32.171 28.8692 31.4686 29.4312 30.4852L34.91 20.9324C35.4719 19.949 35.4719 18.6847 34.91 17.5608L29.4312 8.00805C28.8692 7.02467 27.7454 6.32227 26.6215 6.32227H21.2832V7.72709H26.6215C27.3239 7.72709 28.0263 8.14853 28.3073 8.71046L33.7861 18.2632C34.2076 18.8252 34.2076 19.6681 33.7861 20.23L28.3073 29.7828Z" fill="White"/>
<path d="M13.8368 8.71046C14.2583 8.14853 14.8202 7.72709 15.5226 7.72709V6.32227C14.3988 6.32227 13.2749 7.02467 12.713 8.00805L7.23419 17.5608C6.67226 18.5442 6.67226 19.8085 7.23419 20.9324L12.713 30.4852C13.2749 31.4686 14.3988 32.171 15.5226 32.171H20.861V30.7661H15.5226C14.8202 30.7661 14.1178 30.3447 13.8368 29.7828L8.35805 20.23C7.9366 19.6681 7.9366 18.8252 8.35805 18.2632L13.8368 8.71046Z" fill="White"/>
</svg>
